<?xml version="1.0" standalone="no"?>
<!DOCTYPE svg PUBLIC "-//W3C//DTD SVG 20010904//EN"
 "http://www.w3.org/TR/2001/REC-SVG-20010904/DTD/svg10.dtd">
<svg version="1.0" xmlns="http://www.w3.org/2000/svg"
 width="1000.000000pt" height="1000.000000pt" viewBox="0 0 1000.000000 1000.000000"
 preserveAspectRatio="xMidYMid meet">
<metadata>
Created by potrace 1.14, written by Peter Selinger 2001-2017
</metadata>
<g transform="translate(0.000000,1000.000000) scale(0.100000,-0.100000)"
fill="#000000" stroke="none">
<path d="M1594 9943 c47 -80 322 -566 359 -633 16 -30 33 -59 37 -65 4 -5 20
-32 35 -60 15 -27 100 -178 190 -335 89 -157 174 -307 190 -335 15 -27 54 -96
86 -152 33 -56 59 -106 59 -111 0 -5 -17 -10 -37 -11 -123 -6 -210 -18 -403
-57 -26 -5 -140 -36 -202 -54 -21 -6 -85 -29 -143 -51 -766 -287 -1367 -960
-1581 -1767 -24 -91 -39 -161 -50 -232 -3 -19 -7 -46 -10 -60 -26 -151 -26
-534 2 -710 77 -498 264 -926 566 -1300 79 -97 409 -424 788 -779 40 -37 326
-310 468 -447 l95 -91 -51 -87 c-29 -48 -52 -90 -52 -92 0 -2 -24 -43 -53 -91
-29 -48 -56 -95 -60 -103 -5 -8 -13 -24 -20 -35 -16 -26 -99 -170 -124 -215
-37 -65 -164 -285 -173 -300 -32 -52 -105 -184 -105 -189 0 -3 410 -6 911 -6
l912 -1 48 -44 c61 -55 47 -43 200 -186 71 -67 145 -136 164 -154 19 -18 96
-89 170 -159 74 -70 164 -154 199 -187 35 -32 80 -75 101 -94 51 -48 258 -240
295 -274 120 -110 294 -275 369 -349 102 -101 125 -115 201 -123 49 -6 63 -3
123 26 37 19 94 59 127 90 33 31 86 81 118 111 32 30 75 70 96 89 44 41 270
252 316 295 18 17 88 82 155 145 68 63 131 122 141 131 10 9 80 74 155 145 75
71 145 136 154 144 16 14 257 240 319 300 14 14 44 41 66 60 l40 35 978 0
c537 0 977 1 977 3 0 2 -150 254 -333 560 -184 306 -342 572 -353 590 l-19 32
82 78 c45 42 154 147 244 232 89 85 170 162 179 170 130 114 689 664 757 745
272 326 485 768 556 1155 3 14 8 36 11 50 9 41 17 98 33 225 15 130 8 506 -12
614 -1 9 -6 36 -10 61 -63 384 -243 802 -484 1120 -359 476 -841 804 -1391
948 -63 17 -133 34 -155 38 -22 4 -47 9 -55 10 -8 2 -35 6 -60 9 -25 4 -52 8
-60 10 -8 2 -51 7 -95 11 -44 3 -82 8 -85 11 -2 2 4 19 14 36 10 18 31 55 46
82 15 28 105 187 200 355 95 168 184 325 198 350 25 44 403 715 448 794 12 23
34 62 49 89 l25 47 -955 -2 -956 -3 -40 -74 c-22 -41 -92 -176 -156 -300 -63
-125 -135 -262 -158 -306 -23 -44 -91 -174 -150 -290 -100 -196 -137 -268
-322 -625 -39 -74 -112 -216 -163 -315 -51 -99 -116 -225 -145 -280 -29 -55
-100 -192 -158 -305 -206 -400 -222 -429 -228 -422 -4 4 -30 52 -59 107 -29
55 -81 152 -115 215 -34 63 -90 169 -125 235 -34 66 -70 134 -80 150 -9 17
-39 71 -65 120 -26 50 -62 117 -80 150 -32 59 -94 175 -163 305 -19 36 -86
162 -149 280 -152 283 -181 338 -238 445 -27 50 -59 110 -73 135 -13 25 -47
88 -74 140 -28 52 -63 118 -78 145 -15 28 -51 95 -80 150 -30 55 -74 138 -99
185 -25 47 -55 102 -66 123 l-20 37 -957 0 -957 0 33 -57z m1216 -2149 c11
-12 96 -159 190 -329 18 -33 41 -72 52 -87 10 -14 18 -29 18 -33 0 -4 15 -33
34 -64 18 -31 45 -76 58 -101 14 -25 101 -178 193 -340 92 -162 179 -315 193
-340 14 -25 60 -106 103 -180 42 -75 89 -158 104 -185 16 -28 52 -92 81 -143
30 -52 54 -96 54 -98 0 -4 -247 -436 -300 -524 -8 -14 -82 -141 -685 -1185
-131 -225 -245 -423 -254 -440 -9 -16 -29 -49 -44 -72 -15 -24 -27 -45 -27
-47 0 -2 -19 -37 -43 -78 -24 -40 -58 -98 -75 -128 -17 -30 -66 -117 -110
-192 l-79 -137 -71 67 c-38 37 -142 135 -229 218 -87 83 -174 166 -193 184
-35 33 -86 81 -449 429 -308 296 -426 449 -561 726 -59 121 -133 312 -144 371
-2 11 -9 39 -16 64 -7 25 -14 56 -16 70 -3 14 -9 48 -14 75 -42 224 -45 473
-9 704 53 343 216 707 447 1000 69 87 222 246 291 301 24 19 48 40 55 45 79
72 274 192 424 262 269 126 615 200 915 197 54 -1 102 -5 107 -10z m4685 2
c55 -4 107 -9 115 -11 8 -2 33 -7 55 -10 142 -23 198 -36 335 -81 169 -55 361
-149 510 -249 63 -43 117 -80 120 -84 3 -3 34 -31 70 -61 150 -126 293 -289
413 -470 132 -199 262 -502 303 -705 2 -11 6 -31 9 -45 3 -14 8 -41 10 -60 3
-19 8 -48 10 -65 8 -45 19 -211 19 -285 0 -75 -13 -280 -18 -289 -2 -3 -7 -26
-10 -51 -7 -54 -9 -64 -30 -155 -72 -307 -217 -609 -414 -860 -61 -78 -292
-310 -567 -570 -210 -200 -346 -329 -426 -405 -218 -210 -197 -193 -213 -168
-14 24 -1299 2168 -1332 2225 -11 17 -82 137 -160 266 l-140 233 21 35 c12 19
33 54 47 79 14 25 74 133 135 240 146 259 161 286 196 350 17 30 38 67 49 82
10 14 18 28 18 30 0 4 77 144 140 253 12 22 53 94 90 160 37 66 91 160 119
209 28 49 51 90 51 92 0 2 14 27 31 56 18 29 46 78 62 108 17 30 38 69 48 85
10 17 28 50 41 74 12 24 31 46 40 50 21 8 117 6 253 -3z m-2460 -3178 c15 -29
40 -75 55 -103 15 -27 51 -95 80 -150 29 -55 56 -104 60 -110 4 -5 35 -64 70
-130 35 -66 66 -124 70 -130 4 -5 31 -55 60 -110 29 -55 65 -122 80 -150 15
-27 49 -90 75 -140 26 -49 55 -103 65 -120 9 -16 40 -73 68 -125 109 -206 313
-586 322 -600 5 -8 18 -33 29 -55 11 -22 52 -98 92 -170 39 -71 100 -186 136
-255 36 -69 69 -129 73 -135 4 -5 32 -58 63 -116 l57 -107 -118 -110 c-64 -60
-135 -127 -157 -147 -22 -21 -102 -97 -179 -169 -76 -72 -146 -138 -156 -146
-9 -8 -75 -70 -146 -136 -71 -67 -145 -136 -164 -154 -19 -18 -88 -82 -154
-144 -65 -61 -126 -118 -136 -126 -9 -8 -72 -67 -140 -130 -67 -63 -128 -115
-135 -115 -11 0 -76 58 -340 306 -44 41 -114 106 -155 145 -41 38 -102 94
-135 125 -33 32 -76 71 -95 89 -46 43 -272 254 -325 305 -24 22 -98 92 -165
155 -68 63 -153 143 -189 177 l-66 62 22 43 c62 118 170 322 208 393 115 215
307 579 316 598 5 12 13 29 19 37 5 8 42 76 81 150 39 74 90 171 114 215 23
44 65 123 92 175 28 52 170 320 315 595 146 275 273 515 282 533 9 17 18 32
20 32 2 0 16 -24 31 -52z"/>
</g>
</svg>
